<?xml version="1.0" encoding="UTF-8" standalone="no"?>
<svg
   xmlns:dc="http://purl.org/dc/elements/1.1/"
   xmlns:cc="http://creativecommons.org/ns#"
   xmlns:rdf="http://www.w3.org/1999/02/22-rdf-syntax-ns#"
   xmlns:svg="http://www.w3.org/2000/svg"
   xmlns="http://www.w3.org/2000/svg"
   id="svg921"
   version="1.1"
   viewBox="0 0 17.638844 15.414413"
   height="15.414413mm"
   width="17.638844mm">
  <defs
     id="defs915">
    <clipPath
       id="clipPath84"
       clipPathUnits="userSpaceOnUse">
      <path
         id="path82"
         d="m 241.9715,176.0371 c -0.1905,2.4764 -1.3262,4.8709 -3.1981,6.7427 -2.0465,2.0466 -4.7682,3.2202 -7.4671,3.2202 -2.2552,0 -4.3213,-0.824 -5.8175,-2.3203 l -22.9472,-22.9471 c -1.0532,-1.0531 -1.6331,-2.4533 -1.6331,-3.9427 0,-1.4894 0.5799,-2.8895 1.6331,-3.9426 1.0532,-1.0533 2.4533,-1.6333 3.9427,-1.6333 1.4893,0 2.8896,0.58 3.9427,1.6333 l 22.9471,22.9471 c 0.212,0.2119 0.3286,0.4935 0.3286,0.7932 0,0.2997 -0.1166,0.5813 -0.3285,0.793 -0.2118,0.2118 -0.4934,0.3285 -0.7931,0.3285 -0.2997,0 -0.5814,-0.1167 -0.7929,-0.3284 l -22.9474,-22.9475 c -0.6294,-0.6294 -1.4663,-0.9761 -2.3565,-0.9761 -0.8902,0 -1.727,0.3467 -2.3566,0.9761 -0.6294,0.6296 -0.9761,1.4665 -0.9761,2.3567 0,0.8903 0.3467,1.7271 0.9761,2.3566 l 22.9472,22.947 c 10e-5,2e-4 2e-4,3e-4 3e-4,4e-4 1.0752,1.0748 2.5783,1.6669 4.2324,1.6669 2.1053,0 4.2484,-0.9356 5.8798,-2.5671 1.4933,-1.4934 2.3982,-3.3858 2.5476,-5.3286 0.1445,-1.878 -0.4408,-3.5769 -1.6476,-4.7838 l -8.0989,-8.099 L 215.14,148.134 c -2.312,-2.312 -5.386,-3.5854 -8.6557,-3.5854 -3.2698,0 -6.3438,1.2734 -8.6558,3.5854 -2.3082,2.3082 -3.5794,5.3822 -3.5794,8.6559 0,3.2736 1.2712,6.3476 3.5794,8.6557 l 17.9978,17.9979 c 0.2119,0.2118 0.3285,0.4935 0.3285,0.793 0,0.2996 -0.1166,0.5814 -0.3286,0.7932 -0.2118,0.2118 -0.4935,0.3283 -0.7929,0.3283 -0.2995,0 -0.5812,-0.1166 -0.7931,-0.3284 L 196.2423,167.0318 C 193.5066,164.2961 192,160.6589 192,156.7899 c 0,-3.869 1.5066,-7.5063 4.2424,-10.2418 2.7357,-2.7359 6.373,-4.2425 10.2419,-4.2425 3.8689,0 7.5062,1.5067 10.2419,4.2425 l 14.8481,14.8481 c 3e-4,3e-4 7e-4,8e-4 0.001,0.001 l 8.0979,8.0979 c 1.6776,1.6771 2.4937,4.0006 2.2982,6.5418 z" />
    </clipPath>
    <clipPath
       id="clipPath90"
       clipPathUnits="userSpaceOnUse">
      <path
         id="path88"
         d="M 0,0 H 620 V 309 H 0 Z" />
    </clipPath>
  </defs>
  <metadata
     id="metadata918">
    <rdf:RDF>
      <cc:Work
         rdf:about="">
        <dc:format>image/svg+xml</dc:format>
        <dc:type
           rdf:resource="http://purl.org/dc/dcmitype/StillImage" />
        <dc:title></dc:title>
      </cc:Work>
    </rdf:RDF>
  </metadata>
  <g
     transform="translate(94.242038,-30.757079)"
     id="layer1">
    <g
       id="g78"
       transform="matrix(0.35277777,0,0,-0.35277777,-161.97537,96.373744)">
      <g
         clip-path="url(#clipPath84)"
         id="g80">
        <g
           clip-path="url(#clipPath90)"
           id="g86">
          <path
             id="path92"
             style="fill:#163771;fill-opacity:1;fill-rule:nonzero;stroke:none"
             d="m 187,137.3056 h 60 V 191 h -60 z" />
        </g>
      </g>
    </g>
  </g>
</svg>
