
<svg height="22px" width="22px" fill="#ffffff" xmlns:dc="http://purl.org/dc/elements/1.1/" xmlns:cc="http://creativecommons.org/ns#" xmlns:rdf="http://www.w3.org/1999/02/22-rdf-syntax-ns#" xmlns:svg="http://www.w3.org/2000/svg" xmlns="http://www.w3.org/2000/svg" xmlns:sodipodi="http://sodipodi.sourceforge.net/DTD/sodipodi-0.dtd" xmlns:inkscape="http://www.inkscape.org/namespaces/inkscape" version="1.1" x="0px" y="0px" viewBox="0 0 100 100"><g transform="translate(0,-952.36218)"><path style="color:#ffffff;enable-background:accumulate;" d="m 14,976.36218 c -3.324,0 -6.0000002,2.67602 -6.0000002,6 l 0,40.00002 c 0,3.324 2.6760002,6 6.0000002,6 l 72,0 c 3.324,0 6,-2.676 6,-6 l 0,-40.00002 c 0,-3.32398 -2.676,-6 -6,-6 l -72,0 z m 17,13 c 3.3137,0 6,2.68631 6,6 0,3.31368 -2.6863,6.00002 -6,6.00002 -3.3137,0 -6,-2.68634 -6,-6.00002 0,-3.31369 2.6863,-6 6,-6 z m 23,0 28,0 c 1.1046,0 2,0.8954 2,2 0,1.1046 -0.8954,2 -2,2 l -28,0 c -1.1046,0 -2,-0.8954 -2,-2 0,-1.1046 0.8954,-2 2,-2 z m 0,11.00002 28,0 c 1.1046,0 2,0.8954 2,2 0,1.1046 -0.8954,2 -2,2 l -28,0 c -1.1046,0 -2,-0.8954 -2,-2 0,-1.1046 0.8954,-2 2,-2 z m -23,5 c 7.202,0 13,3.8296 13,8.3438 l 0,1.6562 -26,0 0,-1.6562 c 0,-4.5142 5.798,-8.3438 13,-8.3438 z m 23,6 28,0 c 1.1046,0 2,0.8954 2,2 0,1.1046 -0.8954,2 -2,2 l -28,0 c -1.1046,0 -2,-0.8954 -2,-2 0,-1.1046 0.8954,-2 2,-2 z" fill="#ffffff" stroke="none" marker="none" visibility="visible" display="inline" overflow="visible"/></g></svg>
