<?xml version="1.0" encoding="UTF-8" standalone="no"?>
<svg
   xmlns:dc="http://purl.org/dc/elements/1.1/"
   xmlns:cc="http://creativecommons.org/ns#"
   xmlns:rdf="http://www.w3.org/1999/02/22-rdf-syntax-ns#"
   xmlns:svg="http://www.w3.org/2000/svg"
   xmlns="http://www.w3.org/2000/svg"
   id="svg1431"
   version="1.1"
   viewBox="0 0 21.166666 12.347222"
   height="12.347222mm"
   width="21.166666mm">
  <defs
     id="defs1425">
    <clipPath
       id="clipPath478"
       clipPathUnits="userSpaceOnUse">
      <path
         id="path476"
         d="m 279.5813,761.1139 -7.6719,8.1894 c -0.3028,0.3233 -0.7309,0.5074 -1.1797,0.5074 h -9.0703 v 6.6293 c 0,0.8616 -0.7156,1.56 -1.5984,1.56 h -29.1293 c -0.8828,0 -1.5984,-0.6984 -1.5984,-1.56 0,-0.8615 0.7156,-1.5599 1.5984,-1.5599 h 27.5309 v -24.841 h -13.7857 c -0.6902,2.2634 -2.8406,3.9192 -5.381,3.9192 -2.5404,0 -4.6908,-1.6558 -5.381,-3.9192 h -2.9832 c -0.8828,0 -1.5984,-0.6984 -1.5984,-1.56 0,-0.8615 0.7156,-1.5599 1.5984,-1.5599 h 2.9832 c 0.6902,-2.2635 2.8406,-3.9192 5.381,-3.9192 2.5404,0 4.6908,1.6557 5.381,3.9192 h 15.3841 3.7893 c 0.6902,-2.2635 2.8407,-3.9192 5.381,-3.9192 2.5403,0 4.6908,1.6557 5.381,3.9192 h 3.7893 c 0.8828,0 1.5984,0.6984 1.5984,1.5599 v 11.5822 c 0,0.3896 -0.1494,0.765 -0.4187,1.0526 z m -40.2854,-14.994 c -1.3329,0 -2.4174,1.0584 -2.4174,2.3592 0,1.3009 1.0845,2.3593 2.4174,2.3593 1.3329,0 2.4173,-1.0584 2.4173,-2.3593 0,-1.3008 -1.0844,-2.3592 -2.4173,-2.3592 z m 29.9354,0 c -1.333,0 -2.4173,1.0584 -2.4173,2.3592 0,1.3009 1.0843,2.3593 2.4173,2.3593 1.333,0 2.4173,-1.0584 2.4173,-2.3593 0,-1.3008 -1.0843,-2.3592 -2.4173,-2.3592 z m 5.381,3.9192 c -0.6902,2.2634 -2.8407,3.9192 -5.381,3.9192 -2.5403,0 -4.6908,-1.6558 -5.381,-3.9192 h -2.1909 v 16.6516 h 8.366 l 4.7491,-5.0695 h -9.0538 c -0.8828,0 -1.5984,-0.6984 -1.5984,-1.5599 0,-0.8616 0.7156,-1.56 1.5984,-1.56 h 11.0825 v -8.4622 z" />
    </clipPath>
    <clipPath
       id="clipPath484"
       clipPathUnits="userSpaceOnUse">
      <path
         id="path482"
         d="M 0,0 H 1440 V 1526 H 0 Z" />
    </clipPath>
    <clipPath
       id="clipPath462"
       clipPathUnits="userSpaceOnUse">
      <path
         id="path460"
         d="m 237.0328,758.1887 h -4.7322 c -0.9024,0 -1.6339,-0.7391 -1.6339,-1.651 0,-0.9118 0.7315,-1.6509 1.6339,-1.6509 h 4.7322 c 0.9024,0 1.6339,0.7391 1.6339,1.6509 0,0.9119 -0.7315,1.651 -1.6339,1.651 z" />
    </clipPath>
    <clipPath
       id="clipPath468"
       clipPathUnits="userSpaceOnUse">
      <path
         id="path466"
         d="M 0,0 H 1440 V 1526 H 0 Z" />
    </clipPath>
    <clipPath
       id="clipPath446"
       clipPathUnits="userSpaceOnUse">
      <path
         id="path444"
         d="m 228.3077,758.1887 h -0.6154 c -0.9347,0 -1.6923,-0.7391 -1.6923,-1.651 0,-0.9118 0.7576,-1.6509 1.6923,-1.6509 h 0.6154 c 0.9347,0 1.6923,0.7391 1.6923,1.6509 0,0.9119 -0.7576,1.651 -1.6923,1.651 z" />
    </clipPath>
    <clipPath
       id="clipPath452"
       clipPathUnits="userSpaceOnUse">
      <path
         id="path450"
         d="M 0,0 H 1440 V 1526 H 0 Z" />
    </clipPath>
    <clipPath
       id="clipPath430"
       clipPathUnits="userSpaceOnUse">
      <path
         id="path428"
         d="m 237.0342,770.0755 h -4.7351 c -0.9016,0 -1.6324,-0.7392 -1.6324,-1.651 0,-0.9118 0.7308,-1.6509 1.6324,-1.6509 h 4.7351 c 0.9016,0 1.6325,0.7391 1.6325,1.6509 0,0.9118 -0.7309,1.651 -1.6325,1.651 z" />
    </clipPath>
    <clipPath
       id="clipPath436"
       clipPathUnits="userSpaceOnUse">
      <path
         id="path434"
         d="M 0,0 H 1440 V 1526 H 0 Z" />
    </clipPath>
    <clipPath
       id="clipPath398"
       clipPathUnits="userSpaceOnUse">
      <path
         id="path396"
         d="m 235.7438,760.8302 c 0.8779,0 1.5895,0.7391 1.5895,1.6509 0,0.9118 -0.7116,1.651 -1.5895,1.651 h -8.821 c -0.8778,0 -1.5895,-0.7392 -1.5895,-1.651 0,-0.9118 0.7117,-1.6509 1.5895,-1.6509 z" />
    </clipPath>
    <clipPath
       id="clipPath404"
       clipPathUnits="userSpaceOnUse">
      <path
         id="path402"
         d="M 0,0 H 1440 V 1526 H 0 Z" />
    </clipPath>
    <clipPath
       id="clipPath414"
       clipPathUnits="userSpaceOnUse">
      <path
         id="path412"
         d="m 227.6955,766.7736 h 0.609 c 0.9364,0 1.6955,0.7391 1.6955,1.6509 0,0.9118 -0.7591,1.651 -1.6955,1.651 h -0.609 c -0.9364,0 -1.6955,-0.7392 -1.6955,-1.651 0,-0.9118 0.7591,-1.6509 1.6955,-1.6509 z" />
    </clipPath>
    <clipPath
       id="clipPath420"
       clipPathUnits="userSpaceOnUse">
      <path
         id="path418"
         d="M 0,0 H 1440 V 1526 H 0 Z" />
    </clipPath>
    <clipPath
       id="clipPath382"
       clipPathUnits="userSpaceOnUse">
      <path
         id="path380"
         d="m 222.3073,764.1321 h -0.6146 c -0.9349,0 -1.6927,-0.7392 -1.6927,-1.651 0,-0.9118 0.7578,-1.6509 1.6927,-1.6509 h 0.6146 c 0.9348,0 1.6927,0.7391 1.6927,1.6509 0,0.9118 -0.7578,1.651 -1.6927,1.651 z" />
    </clipPath>
    <clipPath
       id="clipPath388"
       clipPathUnits="userSpaceOnUse">
      <path
         id="path386"
         d="M 0,0 H 1440 V 1526 H 0 Z" />
    </clipPath>
  </defs>
  <metadata
     id="metadata1428">
    <rdf:RDF>
      <cc:Work
         rdf:about="">
        <dc:format>image/svg+xml</dc:format>
        <dc:type
           rdf:resource="http://purl.org/dc/dcmitype/StillImage" />
        <dc:title></dc:title>
      </cc:Work>
    </rdf:RDF>
  </metadata>
  <g
     transform="translate(312.20833,-296.874)"
     id="layer1">
    <g
       id="g376"
       transform="matrix(0.35277777,0,0,-0.35277777,-389.81944,571.33511)">
      <g
         clip-path="url(#clipPath382)"
         id="g378">
        <g
           clip-path="url(#clipPath388)"
           id="g384">
          <path
             id="path390"
             style="fill:#253965;fill-opacity:1;fill-rule:nonzero;stroke:none"
             d="m 215,769.1321 h 14 v -13.3019 h -14 z" />
        </g>
      </g>
    </g>
    <g
       id="g392"
       transform="matrix(0.35277777,0,0,-0.35277777,-389.81944,571.33511)">
      <g
         clip-path="url(#clipPath398)"
         id="g394">
        <g
           clip-path="url(#clipPath404)"
           id="g400">
          <path
             id="path406"
             style="fill:#253965;fill-opacity:1;fill-rule:nonzero;stroke:none"
             d="m 220.3333,769.1321 h 22 v -13.3019 h -22 z" />
        </g>
      </g>
    </g>
    <g
       id="g408"
       transform="matrix(0.35277777,0,0,-0.35277777,-389.81944,571.33511)">
      <g
         clip-path="url(#clipPath414)"
         id="g410">
        <g
           clip-path="url(#clipPath420)"
           id="g416">
          <path
             id="path422"
             style="fill:#253965;fill-opacity:1;fill-rule:nonzero;stroke:none"
             d="m 221,775.0755 h 14 v -13.3019 h -14 z" />
        </g>
      </g>
    </g>
    <g
       id="g424"
       transform="matrix(0.35277777,0,0,-0.35277777,-389.81944,571.33511)">
      <g
         clip-path="url(#clipPath430)"
         id="g426">
        <g
           clip-path="url(#clipPath436)"
           id="g432">
          <path
             id="path438"
             style="fill:#253965;fill-opacity:1;fill-rule:nonzero;stroke:none"
             d="m 225.6667,775.0755 h 18 v -13.3019 h -18 z" />
        </g>
      </g>
    </g>
    <g
       id="g440"
       transform="matrix(0.35277777,0,0,-0.35277777,-389.81944,571.33511)">
      <g
         clip-path="url(#clipPath446)"
         id="g442">
        <g
           clip-path="url(#clipPath452)"
           id="g448">
          <path
             id="path454"
             style="fill:#253965;fill-opacity:1;fill-rule:nonzero;stroke:none"
             d="m 221,763.1887 h 14 v -13.3019 h -14 z" />
        </g>
      </g>
    </g>
    <g
       id="g456"
       transform="matrix(0.35277777,0,0,-0.35277777,-389.81944,571.33511)">
      <g
         clip-path="url(#clipPath462)"
         id="g458">
        <g
           clip-path="url(#clipPath468)"
           id="g464">
          <path
             id="path470"
             style="fill:#253965;fill-opacity:1;fill-rule:nonzero;stroke:none"
             d="m 225.6667,763.1887 h 18 v -13.3019 h -18 z" />
        </g>
      </g>
    </g>
    <g
       id="g472"
       transform="matrix(0.35277777,0,0,-0.35277777,-389.81944,571.33511)">
      <g
         clip-path="url(#clipPath478)"
         id="g474">
        <g
           clip-path="url(#clipPath484)"
           id="g480">
          <path
             id="path486"
             style="fill:#253965;fill-opacity:1;fill-rule:nonzero;stroke:none"
             d="M 224.3333,783 H 285 v -45 h -60.6667 z" />
        </g>
      </g>
    </g>
  </g>
</svg>
