<?xml version="1.0" encoding="UTF-8" standalone="no"?>
<svg
   xmlns:dc="http://purl.org/dc/elements/1.1/"
   xmlns:cc="http://creativecommons.org/ns#"
   xmlns:rdf="http://www.w3.org/1999/02/22-rdf-syntax-ns#"
   xmlns:svg="http://www.w3.org/2000/svg"
   xmlns="http://www.w3.org/2000/svg"
   width="2.6596797mm"
   height="2.0352454mm"
   viewBox="0 0 2.6596796 2.0352454"
   version="1.1"
   id="svg1957">
  <defs
     id="defs1951">
    <clipPath
       clipPathUnits="userSpaceOnUse"
       id="clipPath392">
      <path
         d="m 56.42308,319.9615 h -6.34616 c -0.31862,0 -0.57692,0.2583 -0.57692,0.577 0,0.3186 0.2583,0.5769 0.57692,0.5769 h 6.34616 c 0.31862,0 0.57692,-0.2583 0.57692,-0.5769 0,-0.3187 -0.2583,-0.577 -0.57692,-0.577 z"
         id="path390" />
    </clipPath>
    <clipPath
       clipPathUnits="userSpaceOnUse"
       id="clipPath398">
      <path
         d="M 0,0 H 506 V 352 H 0 Z"
         id="path396" />
    </clipPath>
    <clipPath
       clipPathUnits="userSpaceOnUse"
       id="clipPath408">
      <path
         d="m 56.42308,317.6538 h -5.19231 c -0.31863,0 -0.57692,0.2583 -0.57692,0.577 0,0.3186 0.25829,0.5769 0.57692,0.5769 h 5.19231 c 0.31862,0 0.57692,-0.2583 0.57692,-0.5769 0,-0.3187 -0.2583,-0.577 -0.57692,-0.577 z"
         id="path406" />
    </clipPath>
    <clipPath
       clipPathUnits="userSpaceOnUse"
       id="clipPath414">
      <path
         d="M 0,0 H 506 V 352 H 0 Z"
         id="path412" />
    </clipPath>
    <clipPath
       clipPathUnits="userSpaceOnUse"
       id="clipPath424">
      <path
         d="m 56.42308,315.3462 h -4.03846 c -0.31863,0 -0.57693,0.2583 -0.57693,0.5769 0,0.3186 0.2583,0.5769 0.57693,0.5769 h 4.03846 C 56.7417,316.5 57,316.2417 57,315.9231 c 0,-0.3186 -0.2583,-0.5769 -0.57692,-0.5769 z"
         id="path422" />
    </clipPath>
    <clipPath
       clipPathUnits="userSpaceOnUse"
       id="clipPath430">
      <path
         d="M 0,0 H 506 V 352 H 0 Z"
         id="path428" />
    </clipPath>
    <clipPath
       clipPathUnits="userSpaceOnUse"
       id="clipPath440">
      <path
         d="M 49.5,312.4615 H 42.57692 C 42.2583,312.4615 42,312.7198 42,313.0385 v 1.7307 c 0,2.2304 1.80808,4.0385 4.03846,4.0385 2.23038,0 4.03846,-1.8081 4.03846,-4.0385 v -1.7307 c 0,-0.3187 -0.25829,-0.577 -0.57692,-0.577 z m -6.34615,1.1539 h 5.76923 v 1.1538 c 0,1.5932 -1.29149,2.8846 -2.88462,2.8846 -1.59313,0 -2.88461,-1.2914 -2.88461,-2.8846 z"
         id="path438" />
    </clipPath>
    <clipPath
       clipPathUnits="userSpaceOnUse"
       id="clipPath446">
      <path
         d="M 0,0 H 506 V 352 H 0 Z"
         id="path444" />
    </clipPath>
    <clipPath
       clipPathUnits="userSpaceOnUse"
       id="clipPath456">
      <path
         d="m 46.03846,319.3846 c -1.2745,0 -2.30769,1.0332 -2.30769,2.3077 0,1.2745 1.03319,2.3077 2.30769,2.3077 1.2745,0 2.30769,-1.0332 2.30769,-2.3077 0,-0.612 -0.24313,-1.199 -0.6759,-1.6318 -0.43278,-0.4328 -1.01975,-0.6759 -1.63179,-0.6759 z m 0,3.4616 c -0.63725,0 -1.15384,-0.5166 -1.15384,-1.1539 0,-0.6372 0.51659,-1.1538 1.15384,-1.1538 0.63725,0 1.15385,0.5166 1.15385,1.1538 0,0.6373 -0.5166,1.1539 -1.15385,1.1539 z"
         id="path454" />
    </clipPath>
    <clipPath
       clipPathUnits="userSpaceOnUse"
       id="clipPath462">
      <path
         d="M 0,0 H 506 V 352 H 0 Z"
         id="path460" />
    </clipPath>
    <clipPath
       clipPathUnits="userSpaceOnUse"
       id="clipPath392-3">
      <path
         d="m 56.42308,319.9615 h -6.34616 c -0.31862,0 -0.57692,0.2583 -0.57692,0.577 0,0.3186 0.2583,0.5769 0.57692,0.5769 h 6.34616 c 0.31862,0 0.57692,-0.2583 0.57692,-0.5769 0,-0.3187 -0.2583,-0.577 -0.57692,-0.577 z"
         id="path390-6" />
    </clipPath>
    <clipPath
       clipPathUnits="userSpaceOnUse"
       id="clipPath398-7">
      <path
         d="M 0,0 H 506 V 352 H 0 Z"
         id="path396-5" />
    </clipPath>
  </defs>
  <metadata
     id="metadata1954">
    <rdf:RDF>
      <cc:Work
         rdf:about="">
        <dc:format>image/svg+xml</dc:format>
        <dc:type
           rdf:resource="http://purl.org/dc/dcmitype/StillImage" />
        <dc:title></dc:title>
      </cc:Work>
    </rdf:RDF>
  </metadata>
  <g
     id="layer1"
     transform="translate(-86.542701,-124.57016)">
    <g
       transform="matrix(0.35277777,0,0,-0.35277777,69.094048,237.85253)"
       id="g386">
      <g
         id="g388"
         clip-path="url(#clipPath392)">
        <g
           id="g394"
           clip-path="url(#clipPath398)">
          <path
             d="M 44.5,326.1154 H 62 V 314.9615 H 44.5 Z"
             style="fill:#253965;fill-opacity:1;fill-rule:nonzero;stroke:none"
             id="path400" />
        </g>
      </g>
    </g>
    <g
       transform="matrix(0.35277777,0,0,-0.35277777,68.2661,237.85253)"
       id="g418">
      <g
         id="g420"
         clip-path="url(#clipPath424)">
        <g
           id="g426"
           clip-path="url(#clipPath430)">
          <path
             d="M 46.80769,321.5 H 62 V 310.3462 H 46.80769 Z"
             style="fill:#253965;fill-opacity:1;fill-rule:nonzero;stroke:none"
             id="path432" />
        </g>
      </g>
    </g>
    <g
       id="g895"
       transform="matrix(0.35277777,0,0,-0.35277777,69.094048,238.66068)">
      <g
         clip-path="url(#clipPath392)"
         id="g893">
        <g
           clip-path="url(#clipPath398)"
           id="g891">
          <path
             id="path889"
             style="fill:#253965;fill-opacity:1;fill-rule:nonzero;stroke:none"
             d="M 44.5,326.1154 H 62 V 314.9615 H 44.5 Z" />
        </g>
      </g>
    </g>
  </g>
</svg>
