
<?xml version="1.0" encoding="UTF-8" standalone="no"?>
<!-- Created with Inkscape (http://www.inkscape.org/) -->

<svg
   xmlns:dc="http://purl.org/dc/elements/1.1/"
   xmlns:cc="http://creativecommons.org/ns#"
   xmlns:rdf="http://www.w3.org/1999/02/22-rdf-syntax-ns#"
   xmlns:svg="http://www.w3.org/2000/svg"
   xmlns="http://www.w3.org/2000/svg"
   xmlns:sodipodi="http://sodipodi.sourceforge.net/DTD/sodipodi-0.dtd"
   xmlns:inkscape="http://www.inkscape.org/namespaces/inkscape"
   width="8.8193693mm"
   height="8.3673735mm"
   viewBox="0 0 8.8193693 8.3673735"
   version="1.1"
   id="svg932"
   inkscape:version="0.92.3 (2405546, 2018-03-11)"
   sodipodi:docname="reader.svg">
  <defs
     id="defs926">
    <clipPath
       clipPathUnits="userSpaceOnUse"
       id="clipPath64">
      <path
         d="m 35.92333,24.54306 c -0.28472,0.285 -0.74694,0.285 -1.03194,0 -0.285,-0.285 -0.285,-0.74695 0,-1.03195 1.70833,-1.70833 2.64917,-3.97778 2.64917,-6.39055 0,-2.4125 -0.94084,-4.68167 -2.64917,-6.39028 -0.28528,-0.285 -0.28528,-0.746947 0,-1.032224 0.14222,-0.1425 0.32917,-0.213889 0.51583,-0.213889 0.18667,0 0.37334,0.071389 0.51584,0.213889 C 37.90722,11.68222 39,14.31833 39,17.12056 c 0,2.8025 -1.09278,5.43861 -3.07667,7.4225 z"
         id="path62"
         inkscape:connector-curvature="0" />
    </clipPath>
    <clipPath
       clipPathUnits="userSpaceOnUse"
       id="clipPath54">
      <path
         d="m 33.65333,22.36056 c -0.28472,0.285 -0.74694,0.285 -1.03194,0 -0.285,-0.285 -0.285,-0.74695 0,-1.03195 1.12472,-1.125 1.74417,-2.61944 1.74417,-4.20778 0,-1.58833 -0.61945,-3.08277 -1.74417,-4.2075 -0.285,-0.285 -0.285,-0.74694 0,-1.03222 0.14222,-0.1425 0.32917,-0.21389 0.51583,-0.21389 0.18667,0 0.37334,0.07139 0.51584,0.21389 1.40055,1.40083 2.17194,3.26167 2.17194,5.23972 2.8e-4,1.97806 -0.77111,3.83917 -2.17167,5.23973 z"
         id="path52"
         inkscape:connector-curvature="0" />
    </clipPath>
    <clipPath
       clipPathUnits="userSpaceOnUse"
       id="clipPath44">
      <path
         d="m 31.56222,20.39194 c -0.285,0.28473 -0.74694,0.28473 -1.03222,0 -0.28472,-0.285 -0.28472,-0.74694 0,-1.03222 0.5175,-0.5175 0.80278,-1.20472 0.80278,-1.93555 0,-0.73056 -0.285,-1.41778 -0.80278,-1.93528 -0.28472,-0.285 -0.28472,-0.74695 0,-1.03222 0.14278,-0.1425 0.32944,-0.21389 0.51611,-0.21389 0.18667,0 0.37361,0.07139 0.51583,0.21389 0.79306,0.79305 1.23028,1.84694 1.23028,2.9675 0,1.12083 -0.43694,2.17472 -1.23,2.96777 z"
         id="path42"
         inkscape:connector-curvature="0" />
    </clipPath>
    <clipPath
       clipPathUnits="userSpaceOnUse"
       id="clipPath74">
      <path
         d="m 29.35167,23.42 c 0.0089,0.01194 0.01777,0.02389 0.02611,0.03639 0.0058,0.0097 0.01139,0.01972 0.01722,0.02944 0.0058,0.01028 0.01222,0.02056 0.0175,0.03111 0.0061,0.01195 0.01167,0.02417 0.01722,0.03639 0.0039,0.0092 0.0081,0.01806 0.01195,0.02723 0.0056,0.01333 0.0097,0.02666 0.01416,0.04027 0.0033,0.0086 0.0064,0.0175 0.0086,0.02639 0.0042,0.01334 0.0069,0.02695 0.01028,0.04028 0.0022,0.0097 0.0047,0.01889 0.0064,0.02861 0.0022,0.0125 0.0039,0.02528 0.0058,0.03778 0.0014,0.01083 0.0031,0.02167 0.0042,0.0325 0.0011,0.01139 0.0017,0.02278 0.002,0.03417 5.5e-4,0.01222 0.0014,0.02444 0.0014,0.03694 -2.7e-4,0.01028 -0.0011,0.02056 -0.0017,0.03056 -5.6e-4,0.01333 -0.0011,0.02666 -0.0025,0.04 -8.4e-4,0.0097 -0.0025,0.01944 -0.0042,0.02888 -0.0019,0.01362 -0.0039,0.02695 -0.0064,0.04056 -0.0022,0.01028 -0.005,0.02028 -0.0072,0.03028 -0.0031,0.0125 -0.0061,0.025 -0.01,0.0375 -0.0033,0.01166 -0.0078,0.02333 -0.01194,0.035 -0.0039,0.01055 -0.0072,0.02083 -0.01139,0.03111 -0.0058,0.01417 -0.01306,0.02805 -0.01945,0.04167 -0.0039,0.0075 -0.0069,0.01527 -0.01111,0.02277 -0.0083,0.01556 -0.0175,0.03056 -0.02722,0.04584 -0.0031,0.005 -0.0058,0.01 -0.0089,0.015 -5.6e-4,8.3e-4 -0.0011,0.0014 -0.0017,0.0022 -0.0086,0.01278 -0.01833,0.02528 -0.02833,0.03778 -0.0058,0.0075 -0.01111,0.01555 -0.01722,0.02305 -0.0061,0.0075 -0.01306,0.01445 -0.01972,0.02195 -0.01028,0.01139 -0.02056,0.02305 -0.03167,0.03361 -5.6e-4,8.3e-4 -0.0011,0.0017 -0.002,0.0022 l -6.15555,5.94194 c -0.01583,0.01556 -0.0325,0.02945 -0.04945,0.04334 l -0.73388,2.06639 c -0.13473,0.37972 -0.55195,0.57833 -0.93167,0.44361 -0.38,-0.13472 -0.57861,-0.55195 -0.44361,-0.93195 l 0.79444,-2.23805 c 0.05584,-0.15722 0.16056,-0.28334 0.29056,-0.3675 0.01861,-0.02278 0.03805,-0.045 0.05972,-0.06584 l 5.50286,-5.3119 -2.08556,-1.38722 C 25.43361,22.51306 25.36389,22.44056 25.31111,22.35889 25.03806,22.20333 24.88694,21.8825 24.96139,21.56056 l 0.425,-1.83862 c -6.24861,-0.23444 -9.42222,-2.76388 -9.565,-2.88055 -2.8e-4,-2.8e-4 -5.6e-4,-5.6e-4 -0.0011,-8.3e-4 -0.01861,-0.01556 -0.03667,-0.03139 -0.05361,-0.04862 -0.0097,-0.0094 -0.01806,-0.01972 -0.02723,-0.02972 -0.0067,-0.0075 -0.01388,-0.015 -0.02027,-0.0225 -0.01056,-0.01278 -0.02,-0.02639 -0.02945,-0.03972 -0.0047,-0.0056 -0.0092,-0.01139 -0.01305,-0.01722 -0.0092,-0.01361 -0.01695,-0.0275 -0.025,-0.04111 -0.0039,-0.0064 -0.0081,-0.01306 -0.01167,-0.01973 -0.0072,-0.01361 -0.01361,-0.02777 -0.02,-0.04166 -0.0036,-0.0072 -0.0072,-0.01472 -0.01056,-0.0225 -0.0061,-0.015 -0.01166,-0.03 -0.01666,-0.04556 -0.0025,-0.0069 -0.0053,-0.01389 -0.0075,-0.02083 -0.0067,-0.02139 -0.01222,-0.04306 -0.01695,-0.065 0,-0.0011 -2.7e-4,-0.002 -5.5e-4,-0.0031 C 15.55667,16.37 15.55222,16.315 15.55333,16.26056 c 0.0044,-1.38528 0.57223,-2.84417 1.60056,-4.11 0.98333,-1.21 2.28778,-2.13667 3.67361,-2.609449 C 21.505,9.31 22.16917,9.196389 22.80667,9.196389 c 1.59527,0 3.02277,0.711944 4.07611,2.077501 0.24639,0.31889 0.18722,0.77722 -0.13195,1.02361 -0.31916,0.24639 -0.7775,0.18722 -1.02361,-0.13222 -1.46305,-1.89611 -3.40278,-1.59222 -4.42861,-1.2425 -2.23111,0.76055 -4.06889,2.94361 -4.26778,4.99139 0.38306,0.25444 1.14639,0.70944 2.28084,1.14972 1.42944,0.555 3.73333,1.18889 6.82777,1.215 0.05334,-0.0125 0.10862,-0.01945 0.165,-0.01945 0.05445,0 0.10973,0.0061 0.165,0.01889 0.0014,2.8e-4 0.0025,8.4e-4 0.0039,0.0011 0.18139,-0.0011 0.365,-0.0039 0.55167,-0.0092 0.40222,-0.01056 0.73889,0.30583 0.75056,0.70861 0.01138,0.40278 -0.30584,0.73889 -0.70862,0.75055 -0.06222,0.0017 -0.12305,0.0028 -0.18472,0.0042 l -0.39889,1.72528 2.68584,1.78667 c 5.5e-4,2.7e-4 8.3e-4,5.5e-4 0.0011,8.3e-4 0.01278,0.0083 0.025,0.01778 0.03694,0.02722 0.0081,0.0061 0.01695,0.01195 0.02445,0.01833 0.0067,0.0056 0.01305,0.01167 0.01944,0.0175 0.0125,0.01139 0.025,0.0225 0.03695,0.03445 5.5e-4,8.3e-4 0.0014,0.0014 0.0022,0.0022 0.0044,0.0045 0.0078,0.0092 0.01194,0.01389 0.01195,0.01278 0.02334,0.02556 0.03417,0.03917 0.005,0.0064 0.01,0.01389 0.01528,0.02083 z"
         id="path72"
         inkscape:connector-curvature="0" />
    </clipPath>
    <clipPath
       clipPathUnits="userSpaceOnUse"
       id="clipPath84">
      <path
         d="m 17.56194,25.96778 c 1.2675,0.15333 2.5325,0.78083 3.56195,1.76722 0.29111,0.27861 0.30083,0.74083 0.02222,1.03167 -0.27861,0.29111 -0.74083,0.30083 -1.03167,0.02222 -0.80305,-0.76917 -1.77138,-1.25639 -2.7275,-1.37195 -0.87805,-0.10583 -1.63472,0.12056 -2.13,0.63778 -0.27861,0.29084 -0.74083,0.30084 -1.03166,0.0225 -0.29111,-0.27861 -0.30111,-0.74083 -0.0225,-1.03194 0.6975,-0.72834 1.66305,-1.1139 2.7625,-1.1139 0.19472,-2.7e-4 0.39416,0.01195 0.59666,0.0364 z"
         id="path82"
         inkscape:connector-curvature="0" />
    </clipPath>
  </defs>
  <sodipodi:namedview
     id="base"
     pagecolor="#ffffff"
     bordercolor="#666666"
     borderopacity="1.0"
     inkscape:pageopacity="0.0"
     inkscape:pageshadow="2"
     inkscape:zoom="11.2"
     inkscape:cx="27.765475"
     inkscape:cy="18.433054"
     inkscape:document-units="mm"
     inkscape:current-layer="layer1"
     showgrid="false"
     fit-margin-top="0"
     fit-margin-left="0"
     fit-margin-right="0"
     fit-margin-bottom="0"
     inkscape:window-width="2560"
     inkscape:window-height="1365"
     inkscape:window-x="0"
     inkscape:window-y="25"
     inkscape:window-maximized="1" />
  <metadata
     id="metadata929">
    <rdf:RDF>
      <cc:Work
         rdf:about="">
        <dc:format>image/svg+xml</dc:format>
        <dc:type
           rdf:resource="http://purl.org/dc/dcmitype/StillImage" />
        <dc:title></dc:title>
      </cc:Work>
    </rdf:RDF>
  </metadata>
  <g
     inkscape:label="Layer 1"
     inkscape:groupmode="layer"
     id="layer1"
     transform="translate(263.70135,-175.64369)">
    <g
       transform="matrix(0.35277777,0,0,-0.35277777,-268.64031,187.25535)"
       id="g38">
      <g
         id="g40"
         clip-path="url(#clipPath44)">
        <path
           d="M 25.31646,25.60549 H 37.79222 V 9.242778 H 25.31646 Z"
           style="fill:#ffffff;fill-opacity:1;fill-rule:nonzero;stroke:none"
           id="path46"
           inkscape:connector-curvature="0" />
      </g>
    </g>
    <g
       transform="matrix(0.35277777,0,0,-0.35277777,-268.64031,187.25535)"
       id="g48">
      <g
         id="g50"
         clip-path="url(#clipPath54)">
        <path
           d="M 27.40764,27.57431 H 40.825 V 6.667222 H 27.40764 Z"
           style="fill:#ffffff;fill-opacity:1;fill-rule:nonzero;stroke:none"
           id="path56"
           inkscape:connector-curvature="0" />
      </g>
    </g>
    <g
       transform="matrix(0.35277777,0,0,-0.35277777,-268.64031,187.25535)"
       id="g58">
      <g
         id="g60"
         clip-path="url(#clipPath64)">
        <path
           d="M 29.67743,29.75681 H 44 V 4.484167 H 29.67743 Z"
           style="fill:#ffffff;fill-opacity:1;fill-rule:nonzero;stroke:none"
           id="path66"
           inkscape:connector-curvature="0" />
      </g>
    </g>
    <g
       transform="matrix(0.35277777,0,0,-0.35277777,-268.64031,187.25535)"
       id="g68">
      <g
         id="g70"
         clip-path="url(#clipPath74)">
        <path
           d="M 10.55317,37.91497 H 34.49444 V 4.196389 H 10.55317 Z"
           style="fill:#ffffff;fill-opacity:1;fill-rule:nonzero;stroke:none"
           id="path76"
           inkscape:connector-curvature="0" />
      </g>
    </g>
    <g
       transform="matrix(0.35277777,0,0,-0.35277777,-268.64031,187.25535)"
       id="g78">
      <g
         id="g80"
         clip-path="url(#clipPath84)">
        <path
           d="M 9.000208,33.99159 H 26.34881 V 20.93138 H 9.000208 Z"
           style="fill:#ffffff;fill-opacity:1;fill-rule:nonzero;stroke:none"
           id="path86"
           inkscape:connector-curvature="0" />
      </g>
    </g>
  </g>
</svg>
