<?xml version="1.0" encoding="UTF-8" standalone="no"?>
<svg
   xmlns:dc="http://purl.org/dc/elements/1.1/"
   xmlns:cc="http://creativecommons.org/ns#"
   xmlns:rdf="http://www.w3.org/1999/02/22-rdf-syntax-ns#"
   xmlns:svg="http://www.w3.org/2000/svg"
   xmlns="http://www.w3.org/2000/svg"
   id="svg7064"
   version="1.1"
   viewBox="0 0 7.4683404 7.1028109"
   height="7.1028109mm"
   width="7.4683404mm">
  <defs
     id="defs7058">
    <clipPath
       clipPathUnits="userSpaceOnUse"
       id="clipPath530">
      <path
         d="M 0,0 H 1440 V 2182 H 0 Z"
         id="path528" />
    </clipPath>
  </defs>
  <metadata
     id="metadata7061">
    <rdf:RDF>
      <cc:Work
         rdf:about="">
        <dc:format>image/svg+xml</dc:format>
        <dc:type
           rdf:resource="http://purl.org/dc/dcmitype/StillImage" />
        <dc:title></dc:title>
      </cc:Work>
    </rdf:RDF>
  </metadata>
  <g
     transform="translate(393.22604,106.45022)"
     id="layer1">
    <g
       id="g532"
       transform="matrix(0.35277777,0,0,0.35277777,-435.0002,-106.05166)">
      <path
         d="M 10,15 4.122147,18.09017 5.244717,11.54508 0.4894348,6.90983 7.061074,5.954915 10,0 l 2.93893,5.954915 6.57164,0.954915 -4.75529,4.63525 1.12257,6.54509 z"
         style="fill:none;stroke:#979797;stroke-width:1;stroke-linecap:butt;stroke-linejoin:miter;stroke-miterlimit:10;stroke-dasharray:none;stroke-opacity:1"
         id="path534" />
    </g>
    <g
       style="fill:#253965;fill-opacity:1;stroke:#253965;stroke-opacity:1"
       id="g548"
       transform="matrix(0.35277777,0,0,0.35277777,-393.01965,-106.05166)">
      <path
         d="M 10,15 4.122147,18.09017 5.244717,11.54508 0.4894348,6.90983 7.061074,5.954915 10,0 l 2.93893,5.954915 6.57164,0.954915 -4.75529,4.63525 1.12257,6.54509 z"
         style="fill:#253965;stroke:#253965;stroke-width:1;stroke-linecap:butt;stroke-linejoin:miter;stroke-miterlimit:10;stroke-dasharray:none;stroke-opacity:1;fill-opacity:1"
         id="path550" />
    </g>
  </g>
</svg>
